<svg xmlns="http://www.w3.org/2000/svg" viewBox="0 0 64 64">
  <rect x="2" y="2" width="60" height="60" rx="15" fill="#13172a"/>

  <path d="M9 43h46l4 12H5z" fill="#dfff73" stroke="#f6f6f2" stroke-width="2" stroke-linejoin="round"/>
  <path d="M20.5 43 18 55M32 43v12M43.5 43 46 55M7 49h50" fill="none" stroke="#7147e8" stroke-width="1.7" opacity=".75"/>

  <g fill="#7147e8" stroke="#f6f6f2" stroke-width="2.2" stroke-linecap="round" stroke-linejoin="round">
    <path d="M31 16c-2-4-8-4-10-1-5-1-8 4-6 8-5 2-5 9-1 12-1 5 4 9 8 7 3 4 9 1 9-4z"/>
    <path d="M33 16c2-4 8-4 10-1 5-1 8 4 6 8 5 2 5 9 1 12 1 5-4 9-8 7-3 4-9 1-9-4z"/>
  </g>

  <g fill="none" stroke="#d8ccff" stroke-width="2" stroke-linecap="round">
    <path d="M23 18c-3 2-2 6 1 7-4 1-5 6-2 9-2 1-2 4 0 6M28 22c-3 1-3 5-1 7"/>
    <path d="M41 18c3 2 2 6-1 7 4 1 5 6 2 9 2 1 2 4 0 6M36 22c3 1 3 5 1 7"/>
  </g>
</svg>
